# AST/ASF file generated using VICON BodyLanguage
# -----------------------------------------------
:version 1.10
:name VICON
:units
  mass 1.0
  length 0.45
  angle deg
:documentation
   .ast/.asf automatically generated from VICON data using
   VICON BodyBuilder and BodyLanguage model FoxedUp or BRILLIANT.MOD
:root
   order TX TY TZ RX RY RZ
   axis XYZ
   position 0 0 0  
   orientation 0 0 0 
:bonedata
  begin
     id 1 
     name lhipjoint
     direction 0.625129 -0.738222 0.253461 
     length 2.5165 
     axis 0 0 0  XYZ
  end
  begin
     id 2 
     name lfemur
     direction 0.34202 -0.939693 0  
     length 7.54288  
     axis 0 0 20  XYZ
    dof rx ry rz
    limits (-160.0 20.0)
           (-70.0 70.0)
           (-60.0 70.0)
  end
  begin
     id 3 
     name ltibia
     direction 0.34202 -0.939693 0   
     length 7.71864   
     axis 0 0 20   XYZ
    dof rx
    limits (-10.0 170.0)
  end
  begin
     id 4 
     name lfoot
     direction 0.0772037 -0.212115 0.97419   
     length 2.18429   
     axis -90 7.62852e-016 20   XYZ
    dof rx rz
    limits (-45.0 90.0)
           (-70.0 20.0)
  end
  begin
     id 5 
     name ltoes
     direction 1.53513e-011 -4.21834e-011 1   
     length 1.09718   
     axis -90 7.62852e-016 20   XYZ
    dof rx
    limits (-90.0 20.0)
  end
  begin
     id 6 
     name rhipjoint
     direction -0.621946 -0.740623 0.254285   
     length 2.50835  
     axis 0 0 0  XYZ 
  end
  begin
     id 7 
     name rfemur
     direction -0.34202 -0.939693 0   
     length 7.43366   
     axis 0 0 -20   XYZ
    dof rx ry rz
    limits (-160.0 20.0)
           (-70.0 70.0)
           (-70.0 60.0)
  end
  begin
     id 8 
     name rtibia
     direction -0.34202 -0.939693 0   
     length 7.77122   
     axis 0 0 -20   XYZ
    dof rx
    limits (-10.0 170.0)
 end
 begin
     id 9 
     name rfoot
     direction -0.082694 -0.2272 0.970331   
     length 2.2293  
     axis -90 -7.62852e-016 -20   XYZ
    dof rx rz
    limits (-45.0 90.0)
           (-20.0 70.0)
  end
  begin
     id 10 
     name rtoes
     direction -1.53565e-011 -4.21695e-011 1   
     length 1.1178   
     axis -90 -7.62852e-016 -20   XYZ
    dof rx
    limits (-90.0 20.0)
  end
  begin
     id 11 
     name lowerback
     direction -0.000695208 0.988391 -0.151929   
     length 1.95077   
     axis 0 0 0   XYZ
    dof rx ry rz
    limits (-20.0 45.0)
           (-30.0 30.0)
           (-30.0 30.0)
  end
  begin
     id 12 
     name upperback
     direction -0.00268925 0.999885 -0.0149203   
     length 1.96246   
     axis 0 0 0   XYZ
    dof rx ry rz
    limits (-20.0 45.0)
           (-30.0 30.0)
           (-30.0 30.0)
  end
  begin
     id 13 
     name thorax
     direction -0.000848408 0.998481 0.0550912   
     length 2.00867   
     axis 0 0 0   XYZ
    dof rx ry rz
    limits (-20.0 45.0)
           (-30.0 30.0)
           (-30.0 30.0)
  end
  begin
     id 14 
     name lowerneck
     direction -0.00577709 0.998999 0.0443608   
     length 1.75762   
     axis 0 0 0   XYZ
    dof rx ry rz
    limits (-20.0 45.0)
           (-30.0 30.0)
           (-30.0 30.0)
  end
  begin
     id 15 
     name upperneck
     direction 0.0320945 0.999136 0.0264105   
     length 1.72601   
     axis 0 0 0   XYZ
    dof rx ry rz
    limits (-20.0 45.0)
           (-30.0 30.0)
           (-30.0 30.0)
  end
  begin
     id 16
     name head
     direction 0.0120552 0.999916 0.00480151  
     length 1.79973  
     axis 0 0 0   XYZ
    dof rx ry rz
    limits (-20.0 45.0)
           (-30.0 30.0)
           (-30.0 30.0)
  end
  begin
     id 17 
     name lclavicle
     direction 0.909 0.371533 -0.188897  
     length 3.47956  
     axis 0 0 0   XYZ
    dof ry rz
    limits (-20.0 10.0)
           (0.0 20.0)
  end
  begin
     id 18 
     name lhumerus
     direction 1 -4.48963e-011 -6.48352e-028   
     length 5.52302   
     axis 180 -30 -90   XYZ
    dof rx ry rz
    limits (-60.0 90.0)
           (-90.0 90.0)
           (-90.0 90.0)
  end
  begin
     id 19
     name lradius
     direction 1 -4.48968e-011 -4.78536e-027   
     length 3.58675   
     axis 180 -30 -90   XYZ
    dof rx
    limits (-10.0 170.0)
  end
  begin
     id 20
     name lwrist
     direction 1 -4.48942e-011 -9.9435e-027   
     length 1.79337   
     axis 8.54312e-015 90 90   XYZ
    dof ry
    limits (-180.0 0.0)
 end
  begin
     id 21 
     name lhand
     direction 1 -4.4904e-011 -1.9887e-026   
     length 0.536412   
     axis 1.26896e-014 90 90   XYZ
    dof rx rz
    limits (-90.0 90.0)
           (-45.0 45.0)
  end
  begin
     id 22 
     name lfingers
     direction 1 -4.48893e-011 -3.9774e-026   
     length 0.432469   
     axis 2.53792e-014 90 90   XYZ
    dof rx
    limits (0.0 90.0)
  end
  begin
     id 23
     name lthumb
     direction 0.707107 -6.34934e-011 0.707107   
     length 0.620942   
     axis -90 45 2.85299e-015   XYZ
    dof rx rz
    limits (-45.0 45.0)
           (-45.0 45.0)
  end
  begin
     id 24 
     name rclavicle
     direction -0.89595 0.416672 -0.153813   
     length 3.44099  
     axis 0 0 0   XYZ 
    dof ry rz
    limits (-10.0 20.0)
           (-20.0 0.0)
  end
  begin
     id 25 
     name rhumerus
     direction -1 -4.48952e-011 5.57804e-028  
     length 5.8478   
     axis 180 30 90   XYZ
    dof rx ry rz
    limits (-90.0 60.0)
           (-90.0 90.0)
           (-90.0 90.0)
  end
  begin
     id 26 
     name rradius
     direction -1 -4.48967e-011 -7.93646e-027   
     length 3.62717   
     axis 180 30 90   XYZ
    dof rx
    limits (-10.0 170.0)
  end
  begin
     id 27 
     name rwrist
     direction -1 -4.49008e-011 -9.9435e-027   
     length 1.81359   
     axis 8.54312e-015 -90 -90   XYZ
    dof ry
    limits (-180.0 0.0)
  end
  begin
     id 28
     name rhand
     direction -1 -4.48812e-011 -1.9887e-026   
     length 0.650516   
     axis 1.26896e-014 -90 -90   XYZ
    dof rx rz
    limits (-90.0 90.0)
           (-45.0 45.0)
  end
  begin
     id 29
     name rfingers
     direction -1 -4.49228e-011 -3.9774e-026   
     length 0.524463   
     axis 2.53792e-014 -90 -90   XYZ
    dof rx
    limits (0.0 90.0)
  end
  begin
     id 30
     name rthumb
     direction -0.707107 -6.34912e-011 0.707107   
     length 0.753027   
     axis -90 -45 -2.85299e-015   XYZ
    dof rx rz
    limits (-45.0 45.0)
           (-45.0 45.0)
  end
:hierarchy
  begin
    root lhipjoint rhipjoint lowerback
    lhipjoint lfemur
    lfemur ltibia
    ltibia lfoot
    lfoot ltoes
    rhipjoint rfemur
    rfemur rtibia
    rtibia rfoot
    rfoot rtoes
    lowerback upperback
    upperback thorax
    thorax lowerneck lclavicle rclavicle
    lowerneck upperneck
    upperneck head
    lclavicle lhumerus
    lhumerus lradius
    lradius lwrist
    lwrist lhand lthumb
    lhand lfingers
    rclavicle rhumerus
    rhumerus rradius
    rradius rwrist
    rwrist rhand rthumb
    rhand rfingers
  end

#!OML:ASF F:\VICON\USERDATA\INSTALL\rory3\rory3.ASF
:FULLY-SPECIFIED
:DEGREES
1139
root -6.49834 17.6841 23.8312 -184.831 49.7202 -184.219
lowerback 7.46753 -10.493 -5.13127
upperback 1.93184 -14.233 1.51236
thorax -0.459743 -7.12291 5.22958
lowerneck -1.2349 -24.5693 -1.39063
upperneck 23.1801 -34.3461 5.47788
head 8.83738 -15.6825 -0.93905
rclavicle -5.40197e-014 7.55382e-015
rhumerus -33.303 -14.2463 -65.9314
rradius 34.0612
rwrist 14.1078
rhand -21.8763 16.1411
rfingers 7.12502
rthumb 4.5282 -13.7905
lclavicle -5.40197e-014 7.55382e-015
lhumerus -10.7996 0.651153 85.2131
lradius 19.6838
lwrist 12.2712
lhand -32.4909 19.9451
lfingers 7.12502
lthumb -5.72266 49.8478
rfemur -19.7059 9.5564 25.9144
rtibia 27.0462
rfoot -3.14464 5.69162
rtoes 14.244
lfemur 1.28759 21.5866 -22.6244
ltibia 49.2668
lfoot 9.91793 -17.7375
ltoes -24.769
1140
root -6.56791 17.6485 24.0221 -185.036 48.8399 -184.626
lowerback 7.6337 -10.6188 -5.77169
upperback 1.85922 -14.4608 1.49713
thorax -0.444269 -7.24 5.57315
lowerneck -1.12837 -24.637 -1.50513
upperneck 23.1827 -34.4447 5.5629
head 8.86224 -15.7311 -0.910218
rclavicle 2.66371e-014 -1.39149e-014
rhumerus -33.5877 -14.6849 -65.7494
rradius 33.7357
rwrist 14.0337
rhand -22.2238 15.8327
rfingers 7.12502
rthumb 4.19269 -14.1058
lclavicle 2.66371e-014 -1.39149e-014
lhumerus -10.1504 0.266863 85.1848
lradius 20.9219
lwrist 10.9022
lhand -31.4094 18.6987
lfingers 7.12502
lthumb -4.67848 48.627
rfemur -20.627 9.23062 25.713
rtibia 27.2688
rfoot -2.97326 5.07562
rtoes 12.8056
lfemur 2.12244 20.7047 -23.5254
ltibia 47.858
lfoot 13.4477 -18.8335
ltoes -15.0256
1141
root -6.62888 17.6138 24.2116 -185.049 48.1707 -184.839
lowerback 7.62483 -10.7572 -6.25541
upperback 1.86003 -14.6836 1.43998
thorax -0.303338 -7.35957 5.75023
lowerneck -0.96064 -24.6375 -1.5445
upperneck 23.0973 -34.4693 5.77451
head 8.85517 -15.7378 -0.83165
rclavicle 1.13307e-014 -6.75868e-015
rhumerus -33.8252 -14.3716 -66.101
rradius 33.5277
rwrist 13.4336
rhand -22.457 15.4781
rfingers 7.12502
rthumb 3.96749 -14.4647
lclavicle 1.13307e-014 -6.75868e-015
lhumerus -9.51807 -2.18988 85.3638
lradius 22.1659
lwrist 11.5566
lhand -31.7035 18.969
lfingers 7.12502
lthumb -4.9624 48.8909
rfemur -21.5255 8.78458 25.6997
rtibia 27.3829
rfoot -2.32502 4.96031
rtoes 12.0583
lfemur 2.85505 19.7779 -24.3779
ltibia 46.3771
lfoot 16.2771 -19.2612
ltoes -9.53025
1142
root -6.69116 17.5757 24.3949 -184.88 47.5495 -184.637
lowerback 7.64101 -10.8728 -6.35451
upperback 1.94946 -14.8411 1.37117
thorax -0.189586 -7.44372 5.72198
lowerneck -0.96083 -24.5439 -1.53766
upperneck 23.187 -34.3835 5.92915
head 8.91217 -15.6714 -0.79195
rclavicle 7.12643e-014 -1.03368e-014
rhumerus -34.1488 -14.7586 -66.2373
rradius 33.2649
rwrist 13.4495
rhand -22.2705 15.5858
rfingers 7.12502
rthumb 4.14759 -14.3536
lclavicle 7.12643e-014 -1.03368e-014
lhumerus -8.7739 -3.55895 85.5279
lradius 23.2491
lwrist 11.4701
lhand -32.9322 19.1555
lfingers 7.12502
lthumb -6.1488 49.0462
rfemur -22.2151 8.30256 25.9789
rtibia 27.4079
rfoot -1.23945 5.00576
rtoes 14.1949
lfemur 3.73515 18.6021 -24.9861
ltibia 44.8195
lfoot 18.1908 -19.0532
ltoes -7.4886
1143
root -6.76225 17.528 24.5818 -184.527 46.8101 -184.323
lowerback 7.7468 -11.0163 -6.42673
upperback 1.91217 -15.0429 1.48918
thorax -0.206376 -7.54558 5.90104
lowerneck -0.780568 -24.4916 -1.89354
upperneck 23.0572 -34.3263 6.17684
head 8.94167 -15.6613 -0.676173
rclavicle 2.09718e-014 -1.19271e-015
rhumerus -34.4561 -15.5723 -65.9431
rradius 32.9694
rwrist 13.9105
rhand -21.8525 15.7015
rfingers 7.12502
rthumb 4.55122 -14.2296
lclavicle 2.09718e-014 -1.19271e-015
lhumerus -7.97945 -3.97622 85.9976
lradius 24.2012
lwrist 10.9333
lhand -33.446 18.7705
lfingers 7.12502
lthumb -6.64476 48.6462
rfemur -22.9553 7.85363 26.2841
rtibia 27.2558
rfoot -0.343795 5.00477
rtoes 14.9888
lfemur 4.53028 17.1887 -25.5787
ltibia 43.1769
lfoot 19.158 -18.7511
ltoes -6.07576
1144
root -6.83183 17.4915 24.7674 -184.311 46.2557 -184.431
lowerback 7.69475 -11.1704 -6.77219
upperback 1.78929 -15.2791 1.58394
thorax -0.157078 -7.66872 6.16391
lowerneck -0.654572 -24.428 -2.16384
upperneck 22.9925 -34.2173 6.18679
head 8.93876 -15.6403 -0.627089
rclavicle 4.63665e-014 -1.39149e-014
rhumerus -34.6085 -15.0614 -66.2034
rradius 32.7587
rwrist 13.2532
rhand -21.7199 15.2465
rfingers 7.12502
rthumb 4.67926 -14.6819
lclavicle 4.63665e-014 -1.39149e-014
lhumerus -7.42825 -6.06131 86.1586
lradius 25.5375
lwrist 12.1068
lhand -33.6578 19.1763
lfingers 7.12502
lthumb -6.84924 49.0455
rfemur -23.8801 7.55245 26.241
rtibia 27.083
rfoot 0.280911 5.15765
rtoes 14.7385
lfemur 5.06067 15.814 -26.5409
ltibia 41.3663
lfoot 19.1945 -19.0554
ltoes -7.8014
1145
root -6.9043 17.4582 24.9546 -183.855 45.757 -184.257
lowerback 7.52281 -11.212 -6.74994
upperback 1.81239 -15.3242 1.48338
thorax -0.0669755 -7.69436 6.01233
lowerneck -0.759783 -24.4978 -1.61386
upperneck 22.9686 -34.319 6.1118
head 8.84775 -15.6581 -0.694649
rclavicle 9.12173e-014 -3.97569e-016
rhumerus -34.8961 -14.8644 -66.7079
rradius 32.524
rwrist 12.5297
rhand -21.3137 15.466
rfingers 7.12502
rthumb 5.07144 -14.4533
lclavicle 9.12173e-014 -3.97569e-016
lhumerus -6.7615 -8.98615 85.7986
lradius 26.9117
lwrist 12.9753
lhand -33.8358 19.697
lfingers 7.12502
lthumb -7.02108 49.5605
rfemur -24.8557 7.25378 26.3964
rtibia 26.9025
rfoot 1.10953 5.30423
rtoes 16.2433
lfemur 5.49067 14.1327 -27.3556
ltibia 39.4244
lfoot 18.8901 -18.9774
ltoes -7.62645
1146
root -6.98296 17.4082 25.1571 -183.486 45.1397 -184.199
lowerback 7.50666 -11.1347 -6.88866
upperback 1.83225 -15.2313 1.37601
thorax -0.0453999 -7.64817 5.96739
lowerneck -0.804061 -24.6706 -1.27571
upperneck 22.8786 -34.596 6.2734
head 8.81484 -15.7553 -0.702463
rclavicle 1.36416e-013 -2.76311e-014
rhumerus -35.4007 -16.1608 -66.6043
rradius 32.2203
rwrist 13.0655
rhand -20.43 16.5434
rfingers 7.12502
rthumb 5.92471 -13.3537
lclavicle 1.36416e-013 -2.76311e-014
lhumerus -5.89001 -10.6511 85.7102
lradius 28.0223
lwrist 12.0071
lhand -34.6345 19.7788
lfingers 7.12502
lthumb -7.79197 49.6152
rfemur -25.8613 6.7768 26.5119
rtibia 26.6641
rfoot 1.9051 5.53697
rtoes 17.3022
lfemur 5.99577 12.1963 -28.2411
ltibia 37.4198
lfoot 17.7915 -18.5606
ltoes -5.33195
1147
root -7.06318 17.356 25.3584 -182.991 44.5689 -183.963
lowerback 7.56343 -11.1817 -6.92155
upperback 1.78446 -15.3027 1.39163
thorax -0.102801 -7.68112 6.01733
lowerneck -0.891612 -24.7003 -1.21458
upperneck 22.9498 -34.6521 6.25533
head 8.84354 -15.7709 -0.733346
rclavicle -4.77704e-014 3.37934e-014
rhumerus -35.7893 -16.4498 -66.8105
rradius 32.0556
rwrist 13.267
rhand -21.1675 16.9942
rfingers 7.12502
rthumb 5.21261 -12.9217
lclavicle -4.77704e-014 3.37934e-014
lhumerus -5.1725 -11.2559 85.6622
lradius 29.175
lwrist 10.795
lhand -34.4977 19.2171
lfingers 7.12502
lthumb -7.66002 49.0584
rfemur -26.8454 6.31569 26.7702
rtibia 26.394
rfoot 2.56813 5.78924
rtoes 18.003
lfemur 6.48026 10.3398 -28.9058
ltibia 35.5318
lfoot 15.0834 -18.9838
ltoes -5.08285
1148
root -7.14283 17.3171 25.5527 -182.503 44.0983 -183.634
lowerback 7.6326 -11.3161 -6.83208
upperback 1.78084 -15.4783 1.41423
thorax -0.134557 -7.76726 6.0119
lowerneck -1.05875 -24.6371 -1.02329
upperneck 22.9948 -34.5629 6.11433
head 8.82161 -15.7233 -0.792032
rclavicle -6.16978e-014 8.94531e-016
rhumerus -35.9528 -15.8033 -67.4413
rradius 31.9334
rwrist 13.07
rhand -22.9903 16.9438
rfingers 7.12502
rthumb 3.45246 -13.008
lclavicle -6.16978e-014 8.94531e-016
lhumerus -4.59171 -11.9035 85.4228
lradius 30.5049
lwrist 10.0801
lhand -32.5995 16.7965
lfingers 7.12502
lthumb -5.82755 46.6963
rfemur -27.6927 6.08969 27.0032
rtibia 26.1196
rfoot 3.23678 5.81663
rtoes 19.3982
lfemur 7.12457 8.5631 -29.4379
ltibia 33.9035
lfoot 11.0354 -19.3327
ltoes -4.14058
1149
root -7.22256 17.2846 25.7529 -182.595 43.7471 -184.036
lowerback 7.82548 -11.3023 -7.33206
upperback 1.78095 -15.5112 1.3005
thorax -0.134735 -7.7839 6.18086
lowerneck -0.935158 -24.5949 -1.11422
upperneck 22.7334 -34.543 6.46621
head 8.79302 -15.7139 -0.667108
rclavicle 5.30134e-014 -1.87603e-014
rhumerus -36.1866 -15.13 -67.8627
rradius 31.819
rwrist 12.5718
rhand -22.9168 17.2067
rfingers 7.12502
rthumb 3.52346 -12.7439
lclavicle 5.30134e-014 -1.87603e-014
lhumerus -3.97778 -12.9297 85.2127
lradius 31.8808
lwrist 9.72593
lhand -39.7584 20.8282
lfingers 7.12502
lthumb -12.7349 50.4198
rfemur -28.446 6.01885 26.6063
rtibia 25.7727
rfoot 3.79422 5.92513
rtoes 19.9883
lfemur 7.72714 7.28743 -30.3582
ltibia 32.616
lfoot 7.09745 -19.2425
ltoes -2.87618
1150
root -7.29932 17.2538 25.9597 -182.672 43.605 -184.438
lowerback 8.04411 -11.1592 -7.92852
upperback 1.78311 -15.3839 1.15777
thorax -0.155291 -7.71887 6.37432
lowerneck -0.832244 -24.6378 -0.982865
upperneck 22.5178 -34.6321 6.72878
head 8.73613 -15.7457 -0.591539
rclavicle 8.9217e-014 7.65321e-015
rhumerus -36.6138 -13.809 -68.4329
rradius 31.9518
rwrist 11.3359
rhand -21.1172 16.8659
rfingers 7.12502
rthumb 5.26117 -13.0488
lclavicle 8.9217e-014 7.65321e-015
lhumerus -3.26265 -14.0207 84.8207
lradius 33.0998
lwrist 9.27856
lhand -40.9201 21.6875
lfingers 7.12502
lthumb -13.8546 51.2061
rfemur -29.2599 5.86885 26.3553
rtibia 25.4397
rfoot 4.34183 6.32772
rtoes 19.0946
lfemur 7.83191 6.70137 -31.0777
ltibia 31.5961
lfoot 3.35276 -19.1316
ltoes -4.23278
1151
root -7.37231 17.2047 26.1666 -182.365 43.5802 -184.41
lowerback 8.03213 -11.0141 -8.13076
upperback 1.82541 -15.2041 1.06845
thorax -0.10626 -7.63131 6.37606
lowerneck -0.919919 -24.7335 -0.674645
upperneck 22.5011 -34.7748 6.6986
head 8.69575 -15.7969 -0.639458
rclavicle 4.95222e-014 5.1684e-015
rhumerus -37.0088 -12.7505 -69.1322
rradius 32.0813
rwrist 10.5654
rhand -19.7105 16.1229
rfingers 7.12502
rthumb 6.61926 -13.7536
lclavicle 4.95222e-014 5.1684e-015
lhumerus -2.56746 -14.8003 84.4249
lradius 34.1786
lwrist 7.9853
lhand -39.8312 21.1818
lfingers 7.12502
lthumb -12.805 50.7691
rfemur -30.1863 5.98994 26.4248
rtibia 25.1775
rfoot 4.92183 6.71423
rtoes 18.6307
lfemur 7.67737 6.56724 -31.3648
ltibia 30.6565
lfoot 0.0795259 -18.6514
ltoes -4.73629
